name C:/MyDriveSym/Projects/mobilecap/Data\Session20210830_0002\mocap\ForceDataProcessed\walking2_forces.mot
datacolumns 19
datarows 27
range 0.00000000 0.01300000
endheader 
time	R_ground_force_vx	R_ground_force_vy	R_ground_force_vz	R_ground_force_px	R_ground_force_py	R_ground_force_pz	R_ground_torque_x	R_ground_torque_y	R_ground_torque_z	L_ground_force_vx	L_ground_force_vy	L_ground_force_vz	L_ground_force_px	L_ground_force_py	L_ground_force_pz	L_ground_torque_x	L_ground_torque_y	L_ground_torque_z	
          0.00000000	          0.00000000	          0.00000000	          0.00000000	          0.00423800	          0.00000000	         -0.15486000	          0.00000000	          0.00000000	          0.00000000	          0.00000000	          0.00000000	          0.00000000	          0.70727500	          0.00000000	         -0.16987800	          0.00000000	          0.00000000	          0.00000000	
          0.00050000	          7.23188600	         20.20525200	          7.05504800	          0.00423800	          0.00600000	         -0.15486000	          0.00000000	          0.85474600	          0.00000000	          0.00000000	          0.00000000	          0.00000000	          0.70727500	          0.00000000	         -0.16987800	          0.00000000	          0.00000000	          0.00000000	
          0.00100000	          7.26579700	         20.99053500	          7.15755300	          0.00423800	          0.00600000	         -0.15486000	          0.00000000	          0.84604600	          0.00000000	          0.00000000	          0.00000000	          0.00000000	          0.70727500	          0.00000000	         -0.16987800	          0.00000000	          0.00000000	          0.00000000	
          0.00150000	          7.29903700	         21.78674800	          7.26087800	          0.00423800	          0.00600000	         -0.15486000	          0.00000000	          0.83785000	          0.00000000	          0.00000000	          0.00000000	          0.00000000	          0.70727500	          0.00000000	         -0.16987800	          0.00000000	          0.00000000	          0.00000000	
          0.00200000	          7.33158900	         22.59396100	          7.36502000	          0.00423800	          0.00600000	         -0.15486000	          0.00000000	          0.83011200	          0.00000000	          0.00000000	          0.00000000	          0.00000000	          0.70727500	          0.00000000	         -0.16987800	          0.00000000	          0.00000000	          0.00000000	
          0.00250000	          7.36343500	         23.41224200	          7.46997800	          0.00423800	          0.00600000	         -0.15486000	          0.00000000	          0.82279300	          0.00000000	          0.00000000	          0.00000000	          0.00000000	          0.70727500	          0.00000000	         -0.16987800	          0.00000000	          0.00000000	          0.00000000	
          0.00300000	          7.39455600	         24.24165800	          7.57574900	          0.00423800	          0.00600000	         -0.15486000	          0.00000000	          0.81585700	          0.00000000	          0.00000000	          0.00000000	          0.00000000	          0.70727500	          0.00000000	         -0.16987800	          0.00000000	          0.00000000	          0.00000000	
          0.00350000	          7.42493600	         25.08227800	          7.68233100	          0.00423800	          0.00600000	         -0.15486000	          0.00000000	          0.80927200	          0.00000000	          0.00000000	          0.00000000	          0.00000000	          0.70727500	          0.00000000	         -0.16987800	          0.00000000	          0.00000000	          0.00000000	
          0.00400000	          7.45455500	         25.93416800	          7.78972100	          0.00423800	          0.00600000	         -0.15486000	          0.00000000	          0.80300900	          0.00000000	          0.00000000	          0.00000000	          0.00000000	          0.70727500	          0.00000000	         -0.16987800	          0.00000000	          0.00000000	          0.00000000	
          0.00450000	          7.48339700	         26.79739400	          7.89791800	          0.00423800	          0.00600000	         -0.15486000	          0.00000000	          0.79704200	          0.00000000	          0.00000000	          0.00000000	          0.00000000	          0.70727500	          0.00000000	         -0.16987800	          0.00000000	          0.00000000	          0.00000000	
          0.00500000	          7.51144100	         27.67202200	          8.00691800	          0.00423800	          0.00600000	         -0.15486000	          0.00000000	          0.79134600	          0.00000000	          0.00000000	          0.00000000	          0.00000000	          0.70727500	          0.00000000	         -0.16987800	          0.00000000	          0.00000000	          0.00000000	
          0.00550000	          7.53867000	         28.55811600	          8.11671800	          0.00423800	          0.00600000	         -0.15486000	          0.00000000	          0.78590100	          0.00000000	          0.00000000	          0.00000000	          0.00000000	          0.70727500	          0.00000000	         -0.16987800	          0.00000000	          0.00000000	          0.00000000	
          0.00600000	          7.56506400	         29.45574100	          8.22731400	          0.00423800	          0.00600000	         -0.15486000	          0.00000000	          0.78068700	          0.00000000	          0.00000000	          0.00000000	          0.00000000	          0.70727500	          0.00000000	         -0.16987800	          0.00000000	          0.00000000	          0.00000000	
          0.00650000	          7.59060400	         30.36495900	          8.33870500	          0.00423800	          0.00600000	         -0.15486000	          0.00000000	          0.77568600	          0.00000000	          0.00000000	          0.00000000	          0.00000000	          0.70727500	          0.00000000	         -0.16987800	          0.00000000	          0.00000000	          0.00000000	
          0.00700000	          7.61527200	         31.28583400	          8.45088500	          0.00423800	          0.00600000	         -0.15486000	          0.00000000	          0.77088000	          0.00000000	          0.00000000	          0.00000000	          0.00000000	          0.70727500	          0.00000000	         -0.16987800	          0.00000000	          0.00000000	          0.00000000	
          0.00750000	          7.63904600	         32.21842800	          8.56385100	          0.00423800	          0.00600000	         -0.15486000	          0.00000000	          0.76625700	          0.00000000	          0.00000000	          0.00000000	          0.00000000	          0.70727500	          0.00000000	         -0.16987800	          0.00000000	          0.00000000	          0.00000000	
          0.00800000	          7.66190800	         33.16280000	          8.67759900	          0.00423800	          0.00600000	         -0.15486000	          0.00000000	          0.76180000	          0.00000000	          0.00000000	          0.00000000	          0.00000000	          0.70727500	          0.00000000	         -0.16987800	          0.00000000	          0.00000000	          0.00000000	
          0.00850000	          7.68383800	         34.11901300	          8.79212500	          0.00541300	          0.00600000	         -0.15484500	          0.00000000	          0.75749800	          0.00000000	          0.00000000	          0.00000000	          0.00000000	          0.70727500	          0.00000000	         -0.16987800	          0.00000000	          0.00000000	          0.00000000	
          0.00900000	          7.70481500	         35.08712400	          8.90742400	          0.00654600	          0.00600000	         -0.15482900	          0.00000000	          0.75333900	          0.00000000	          0.00000000	          0.00000000	          0.00000000	          0.70727500	          0.00000000	         -0.16987800	          0.00000000	          0.00000000	          0.00000000	
          0.00950000	          7.72481900	         36.06719300	          9.02349200	          0.00763900	          0.00600000	         -0.15481300	          0.00000000	          0.74931200	          0.00000000	          0.00000000	          0.00000000	          0.00000000	          0.70727500	          0.00000000	         -0.16987800	          0.00000000	          0.00000000	          0.00000000	
          0.01000000	          7.74383000	         37.05927800	          9.14032500	          0.00869500	          0.00600000	         -0.15479700	          0.00000000	          0.74540700	          0.00000000	          0.00000000	          0.00000000	          0.00000000	          0.70727500	          0.00000000	         -0.16987800	          0.00000000	          0.00000000	          0.00000000	
          0.01050000	          7.76182600	         38.06343500	          9.25791600	          0.00971600	          0.00600000	         -0.15478100	          0.00000000	          0.74161400	          0.00000000	          0.00000000	          0.00000000	          0.00000000	          0.70727500	          0.00000000	         -0.16987800	          0.00000000	          0.00000000	          0.00000000	
          0.01100000	          7.77878600	         39.07971900	          9.37626200	          0.01070400	          0.00600000	         -0.15476400	          0.00000000	          0.73792500	          0.00000000	          0.00000000	          0.00000000	          0.00000000	          0.70727500	          0.00000000	         -0.16987800	          0.00000000	          0.00000000	          0.00000000	
          0.01150000	          7.79469000	         40.10818700	          9.49535600	          0.01166000	          0.00600000	         -0.15474700	          0.00000000	          0.73433000	          0.00000000	          0.00000000	          0.00000000	          0.00000000	          0.70727500	          0.00000000	         -0.16987800	          0.00000000	          0.00000000	          0.00000000	
          0.01200000	          7.80951600	         41.14889100	          9.61519200	          0.01258600	          0.00600000	         -0.15473000	          0.00000000	          0.73082400	          0.00000000	          0.00000000	          0.00000000	          0.00000000	          0.70727500	          0.00000000	         -0.16987800	          0.00000000	          0.00000000	          0.00000000	
          0.01250000	          7.82324200	         42.20188500	          9.73576600	          0.01348400	          0.00600000	         -0.15471300	          0.00000000	          0.72739900	          0.00000000	          0.00000000	          0.00000000	          0.00000000	          0.70727500	          0.00000000	         -0.16987800	          0.00000000	          0.00000000	          0.00000000	
          0.01300000	          7.83584600	         43.26722000	          9.85707000	          0.01435500	          0.00600000	         -0.15469600	          0.00000000	          0.72404700	          0.00000000	          0.00000000	          0.00000000	          0.00000000	          0.70727500	          0.00000000	         -0.16987800	          0.00000000	          0.00000000	          0.00000000	
